<svg xmlns="http://www.w3.org/2000/svg" width="18" height="21" viewBox="0 0 18 21"><g><g><path fill="#000" d="M17.622 20.53c-.07.074-.148.141-.231.199l-.022.015a1.524 1.524 0 0 1-.513.218l-.026.006-.039.007a.765.765 0 0 1-.038.007h-.007c-.074.012-.15.018-.227.018H1.48c-.42 0-.822-.172-1.102-.47a1.374 1.374 0 0 1-.37-1.098L1.515 6.307c.083-.718.716-1.26 1.473-1.26h1.145v-.403C4.133 2.083 6.317 0 9 0s4.867 2.083 4.867 4.644v.404h1.145c.757 0 1.39.541 1.472 1.26l1.508 13.124c.045.399-.09.799-.37 1.098zM5.402 5.048h7.195v-.404C12.597 2.75 10.983 1.21 9 1.21c-1.984 0-3.597 1.54-3.597 3.433zM1.64 16.355H16.36L15.222 6.44a.208.208 0 0 0-.21-.18h-1.145v1.817c0 .335-.285.606-.635.606-.35 0-.635-.27-.635-.606V6.26H5.403v1.817c0 .335-.284.606-.635.606-.35 0-.635-.27-.635-.606V6.26H2.988a.208.208 0 0 0-.21.18zm15.09 3.21l-.229-1.998h-15l-.23 1.997a.195.195 0 0 0 .053.157.215.215 0 0 0 .157.067h15.04a.215.215 0 0 0 .157-.067.195.195 0 0 0 .053-.157z"/></g></g></svg>