<svg xmlns="http://www.w3.org/2000/svg" width="36" height="32" viewBox="0 0 36 32"><g><g><path fill="#003263" d="M12.375.25h-9A3.376 3.376 0 0 0 0 3.625v9A3.376 3.376 0 0 0 3.375 16H9v4.5C9 22.982 6.982 25 4.5 25h-.563c-.935 0-1.687.752-1.687 1.688v3.375c0 .935.752 1.687 1.688 1.687H4.5c6.216 0 11.25-5.034 11.25-11.25V3.625A3.376 3.376 0 0 0 12.375.25zm20.25 0h-9a3.376 3.376 0 0 0-3.375 3.375v9A3.376 3.376 0 0 0 23.625 16h5.625v4.5c0 2.482-2.018 4.5-4.5 4.5h-.563c-.935 0-1.687.752-1.687 1.688v3.375c0 .935.752 1.687 1.688 1.687h.562C30.966 31.75 36 26.716 36 20.5V3.625A3.376 3.376 0 0 0 32.625.25z"/></g></g></svg>